<svg width="57" height="57" viewBox="0 0 57 57" fill="none" xmlns="http://www.w3.org/2000/svg">
<circle cx="28.5" cy="28.5" r="27" stroke="#262626" stroke-width="3"/>
<path d="M17.1965 39.46L19.3565 38.92V15.88L17.1965 15.34V14.8H26.7365C30.8165 14.8 33.7565 15.424 35.5565 16.672C37.3565 17.896 38.2565 19.612 38.2565 21.82C38.2565 23.308 37.8605 24.52 37.0685 25.456C36.2765 26.368 35.2565 27.052 34.0085 27.508C32.6885 28.012 31.2845 28.276 29.7965 28.3V28.48C30.6845 28.528 31.4645 28.66 32.1365 28.876C33.8165 29.404 34.9565 30.352 35.5565 31.72L38.7965 38.92L40.5965 39.46V40H35.5565C33.5885 40 32.1485 38.98 31.2365 36.94L27.6365 28.84H25.2965V38.92L27.8165 39.46V40H17.1965V39.46ZM26.7365 27.94C28.4165 27.94 29.7365 27.412 30.6965 26.356C31.6565 25.3 32.1365 23.788 32.1365 21.82C32.1365 19.852 31.6565 18.34 30.6965 17.284C29.7365 16.228 28.4165 15.7 26.7365 15.7H25.2965V27.94H26.7365Z" fill="#262626"/>
<path d="M28.4958 49.36C27.7758 49.36 27.1398 49.096 26.5878 48.568C26.0598 48.016 25.7958 47.38 25.7958 46.66C25.7958 45.94 26.0598 45.316 26.5878 44.788C27.1398 44.236 27.7758 43.96 28.4958 43.96C29.2158 43.96 29.8398 44.236 30.3678 44.788C30.9198 45.316 31.1958 45.94 31.1958 46.66C31.1958 47.38 30.9198 48.016 30.3678 48.568C29.8398 49.096 29.2158 49.36 28.4958 49.36Z" fill="#262626"/>
</svg>
