<svg id="visual" viewBox="0 0 900 600" width="900" height="600" xmlns="http://www.w3.org/2000/svg" xmlns:xlink="http://www.w3.org/1999/xlink" version="1.1"><g transform="translate(454.15194744031066 325.53132849114166)"><path d="M146 -199.9C185 -172.6 209.5 -124.3 218.2 -76C227 -27.6 220 20.8 202.6 63.1C185.1 105.5 157.2 141.7 121.7 162.4C86.2 183 43.1 188 6.3 179.4C-30.6 170.7 -61.1 148.5 -108.7 131.8C-156.2 115 -220.8 103.9 -229.3 75.1C-237.8 46.4 -190.2 0 -170 -53.1C-149.8 -106.1 -156.9 -165.9 -133.1 -198.2C-109.3 -230.5 -54.7 -235.2 -0.6 -234.4C53.5 -233.6 107 -227.2 146 -199.9" fill="#bcd3e5"></path></g></svg>