<svg id="visual" fill-opacity="0.5" viewBox="0 0 900 600" width="900" height="600" xmlns="http://www.w3.org/2000/svg" xmlns:xlink="http://www.w3.org/1999/xlink" version="1.1"><g transform="translate(438.26934427281776 305.07242213909103)"><path d="M160.9 -212.3C220.4 -178.3 288.5 -147.1 280.6 -106.5C272.6 -65.9 188.6 -16 162.7 49.5C136.8 114.9 168.9 195.8 151.5 236.6C134 277.5 67 278.2 21.5 248.7C-24.1 219.2 -48.2 159.3 -105.9 131.6C-163.6 103.8 -254.9 108.2 -257.7 86.7C-260.5 65.3 -174.8 18.2 -139.6 -31.4C-104.3 -81.1 -119.5 -133.2 -104.6 -181.7C-89.7 -230.2 -44.9 -275.1 2.9 -279.1C50.7 -283.2 101.5 -246.4 160.9 -212.3" fill="#ffb4ef"></path></g></svg>