<svg id="visual" viewBox="0 0 900 600" width="900" height="600" xmlns="http://www.w3.org/2000/svg" xmlns:xlink="http://www.w3.org/1999/xlink" version="1.1"><g transform="translate(459.642379886597 316.19232332504214)"><path d="M122.1 -184.6C162.5 -164.1 202.2 -137.3 206.5 -101.9C210.8 -66.6 179.6 -22.6 177.1 28.6C174.6 79.7 200.6 138.1 183.4 160.1C166.2 182.1 105.6 167.8 57.6 170C9.6 172.1 -25.9 190.6 -67.8 194.8C-109.7 199 -158 188.9 -189 160C-220 131 -233.7 83.3 -222.1 43.1C-210.5 2.9 -173.5 -29.7 -156.6 -73.6C-139.8 -117.5 -143.2 -172.8 -120.4 -201.2C-97.7 -229.7 -48.8 -231.3 -4 -225.2C40.9 -219 81.8 -205 122.1 -184.6" fill-opacity="0.8" fill="#e9f0dc"></path></g></svg>