<svg id="visual" viewBox="0 0 900 600" width="900" height="600" xmlns="http://www.w3.org/2000/svg" xmlns:xlink="http://www.w3.org/1999/xlink" version="1.1"><g transform="translate(474.3563178651357 299.1475122798488)"><path d="M90.6 -138.6C130.9 -133.7 186.2 -136.6 209.5 -114.8C232.7 -93 223.9 -46.5 209.6 -8.3C195.3 30 175.6 60 156.9 89.7C138.3 119.5 120.6 148.9 94.6 158.9C68.7 168.9 34.3 159.5 3.4 153.6C-27.5 147.6 -55 145.3 -87 138.8C-119.1 132.3 -155.7 121.6 -191.9 97.8C-228.2 74 -264.1 37 -271.2 -4.1C-278.2 -45.2 -256.5 -90.3 -221.3 -116C-186.1 -141.7 -137.6 -147.9 -98.4 -153.5C-59.3 -159.1 -29.7 -164.1 -2.3 -160.2C25.2 -156.3 50.3 -143.5 90.6 -138.6" fill-opacity="0.5" fill="#FFFFFF"></path></g></svg>