<svg id="visual" viewBox="0 0 900 600" width="900" height="600" xmlns="http://www.w3.org/2000/svg" xmlns:xlink="http://www.w3.org/1999/xlink" version="1.1"><g transform="translate(426.42696742574594 257.0619020483241)"><path d="M180.5 -215.6C226.7 -215 251.7 -152.4 267.1 -90.3C282.5 -28.1 288.2 33.7 261.7 75.8C235.3 117.9 176.7 140.2 127.7 186.8C78.8 233.4 39.4 304.2 2.1 301.4C-35.3 298.5 -70.5 222.1 -85.4 164.4C-100.3 106.8 -94.9 67.9 -125.4 28C-156 -11.9 -222.5 -52.9 -231.8 -91.1C-241.1 -129.2 -193.2 -164.5 -145 -164.5C-96.8 -164.5 -48.4 -129.1 9.4 -142.1C67.2 -155 134.4 -216.2 180.5 -215.6" fill="#9ed2cd"></path></g></svg>